REM DIRINDEX 1\2,1\3,1\4,1\5
REM DIRNAME "folder01","folder02","folder03","folder04","folder05"
TITLE ""
FILE "1Q_t_0788-0800.mp3" MP3
  TRACK 01 AUDIO
    TITLE "0:"
    INDEX 01 00:00:00
  TRACK 02 AUDIO
    TITLE "3:cjc172_3309"
    INDEX 01 00:00:12
  TRACK 03 AUDIO
    TITLE "0:"
    INDEX 01 00:01:43
  TRACK 04 AUDIO
    TITLE "4:cjc172_3310"
    INDEX 01 00:01:53
  TRACK 05 AUDIO
    TITLE "0:"
    INDEX 01 00:03:38
  TRACK 06 AUDIO
    TITLE "5:cjc172_3311"
    INDEX 01 00:03:44
  TRACK 07 AUDIO
    TITLE "0:"
    INDEX 01 00:07:48
  TRACK 08 AUDIO
    TITLE "3:cjc172_3312"
    INDEX 01 00:08:20
  TRACK 09 AUDIO
    TITLE "0:"
    INDEX 01 00:09:48
  TRACK 10 AUDIO
    TITLE "4:cjc172_3313"
    INDEX 01 00:09:58
  TRACK 11 AUDIO
    TITLE "0:"
    INDEX 01 00:12:15
  TRACK 12 AUDIO
    TITLE "5:cjc172_3314"
    INDEX 01 00:12:23
  TRACK 13 AUDIO
    TITLE "0:"
    INDEX 01 00:17:01
  TRACK 14 AUDIO
    TITLE "3:cjc172_3315"
    INDEX 01 00:17:46
  TRACK 15 AUDIO
    TITLE "0:"
    INDEX 01 00:18:51
  TRACK 16 AUDIO
    TITLE "4:cjc172_3316"
    INDEX 01 00:18:61
  TRACK 17 AUDIO
    TITLE "0:"
    INDEX 01 00:21:22
  TRACK 18 AUDIO
    TITLE "5:cjc172_3317"
    INDEX 01 00:21:30
  TRACK 19 AUDIO
    TITLE "0:"
    INDEX 01 00:27:07
  TRACK 20 AUDIO
    TITLE "3:cjc172_3318"
    INDEX 01 00:27:52
  TRACK 21 AUDIO
    TITLE "0:"
    INDEX 01 00:28:71
  TRACK 22 AUDIO
    TITLE "4:cjc172_3319"
    INDEX 01 00:29:06
  TRACK 23 AUDIO
    TITLE "0:"
    INDEX 01 00:31:42
  TRACK 24 AUDIO
    TITLE "5:cjc172_3320"
    INDEX 01 00:31:50
  TRACK 25 AUDIO
    TITLE "0:"
    INDEX 01 00:38:42
  TRACK 26 AUDIO
    TITLE "3:cjc172_3321"
    INDEX 01 00:39:10
  TRACK 27 AUDIO
    TITLE "0:"
    INDEX 01 00:40:37
  TRACK 28 AUDIO
    TITLE "4:cjc172_3322"
    INDEX 01 00:40:45
  TRACK 29 AUDIO
    TITLE "0:"
    INDEX 01 00:43:16
  TRACK 30 AUDIO
    TITLE "5:cjc172_3323"
    INDEX 01 00:43:24
  TRACK 31 AUDIO
    TITLE "0:"
    INDEX 01 00:50:10
  TRACK 32 AUDIO
    TITLE "3:cjc172_3324"
    INDEX 01 00:50:57
  TRACK 33 AUDIO
    TITLE "0:"
    INDEX 01 00:52:03
  TRACK 34 AUDIO
    TITLE "4:cjc172_3325"
    INDEX 01 00:52:13
  TRACK 35 AUDIO
    TITLE "0:"
    INDEX 01 00:54:43
  TRACK 36 AUDIO
    TITLE "5:cjc172_3326"
    INDEX 01 00:54:51
  TRACK 37 AUDIO
    TITLE "0:"
    INDEX 01 01:00:58
  TRACK 38 AUDIO
    TITLE "3:cjc172_3327"
    INDEX 01 01:01:28
  TRACK 39 AUDIO
    TITLE "0:"
    INDEX 01 01:02:54
  TRACK 40 AUDIO
    TITLE "4:cjc172_3328"
    INDEX 01 01:02:64
  TRACK 41 AUDIO
    TITLE "0:"
    INDEX 01 01:04:24
  TRACK 42 AUDIO
    TITLE "5:cjc172_3329"
    INDEX 01 01:04:30
  TRACK 43 AUDIO
    TITLE "0:"
    INDEX 01 01:09:70
  TRACK 44 AUDIO
    TITLE "2:cjc172_3330"
    INDEX 01 01:10:38
  TRACK 45 AUDIO
    TITLE "0:"
    INDEX 01 01:11:48
  TRACK 46 AUDIO
    TITLE "3:cjc172_3331"
    INDEX 01 01:12:18
  TRACK 47 AUDIO
    TITLE "0:"
    INDEX 01 01:13:50
  TRACK 48 AUDIO
    TITLE "4:cjc172_3332"
    INDEX 01 01:13:62
  TRACK 49 AUDIO
    TITLE "0:"
    INDEX 01 01:15:06
  TRACK 50 AUDIO
    TITLE "5:cjc172_3333"
    INDEX 01 01:15:14
  TRACK 51 AUDIO
    TITLE "0:"
    INDEX 01 01:19:65
  TRACK 52 AUDIO
    TITLE "3:cjc172_3334"
    INDEX 01 01:20:37
  TRACK 53 AUDIO
    TITLE "0:"
    INDEX 01 01:21:56
  TRACK 54 AUDIO
    TITLE "4:cjc172_3335"
    INDEX 01 01:21:64
  TRACK 55 AUDIO
    TITLE "0:"
    INDEX 01 01:25:58
  TRACK 56 AUDIO
    TITLE "5:cjc172_3336"
    INDEX 01 01:25:63
  TRACK 57 AUDIO
    TITLE "0:"
    INDEX 01 01:31:48
  TRACK 58 AUDIO
    TITLE "3:cjc172_3337"
    INDEX 01 01:32:20
  TRACK 59 AUDIO
    TITLE "0:"
    INDEX 01 01:33:43
  TRACK 60 AUDIO
    TITLE "4:cjc172_3338"
    INDEX 01 01:33:53
  TRACK 61 AUDIO
    TITLE "0:"
    INDEX 01 01:37:45
  TRACK 62 AUDIO
    TITLE "5:cjc172_3339"
    INDEX 01 01:37:55
  TRACK 63 AUDIO
    TITLE "0:"
    INDEX 01 01:42:64
  TRACK 64 AUDIO
    TITLE "3:cjc172_3340"
    INDEX 01 01:43:34
  TRACK 65 AUDIO
    TITLE "0:"
    INDEX 01 01:44:61
  TRACK 66 AUDIO
    TITLE "4:cjc172_3341"
    INDEX 01 01:44:72
  TRACK 67 AUDIO
    TITLE "0:"
    INDEX 01 01:47:26
  TRACK 68 AUDIO
    TITLE "5:cjc172_3342"
    INDEX 01 01:47:34
  TRACK 69 AUDIO
    TITLE "0:"
    INDEX 01 01:54:16
  TRACK 70 AUDIO
    TITLE "3:cjc172_3343"
    INDEX 01 01:54:61
  TRACK 71 AUDIO
    TITLE "0:"
    INDEX 01 01:55:66
  TRACK 72 AUDIO
    TITLE "4:cjc172_3344"
    INDEX 01 01:55:74
  TRACK 73 AUDIO
    TITLE "0:"
    INDEX 01 01:58:22
  TRACK 74 AUDIO
    TITLE "5:cjc172_3345"
    INDEX 01 01:58:30
  TRACK 75 AUDIO
    TITLE "0:"
    INDEX 01 02:04:30
  TRACK 76 AUDIO
    TITLE "2:cjc172_3346"
    INDEX 01 02:05:00
  TRACK 77 AUDIO
    TITLE "0:"
    INDEX 01 02:06:31
  TRACK 78 AUDIO
    TITLE "3:cjc172_3347"
    INDEX 01 02:07:01
  TRACK 79 AUDIO
    TITLE "0:"
    INDEX 01 02:08:14
  TRACK 80 AUDIO
    TITLE "4:cjc172_3348"
    INDEX 01 02:08:22
  TRACK 81 AUDIO
    TITLE "0:"
    INDEX 01 02:09:72
  TRACK 82 AUDIO
    TITLE "5:cjc172_3349"
    INDEX 01 02:10:05
  TRACK 83 AUDIO
    TITLE "0:"
    INDEX 01 02:15:59
